# xmcd CD database file
#
# Track frame offsets:
#	150
#	19220
#	32555
#	49200
#	67745
#	86260
#	99625
#	114887
#	128365
#	143897
#	158355
#	173007
#	190685
#	207647
#	224762
#	240215
#	257180
#	268060
#	283512
#	301185
#	313057
#	325062
#
# Disc length: 4455 seconds
#
# Revision: 2
# Processed by: cddbd v1.5.2PL0 Copyright (c) Steve Scherf et al.
# Submitted via: CDex 1.70beta2
#
DISCID=28116516
DTITLE=Country Music - Around The German Corner - Various
DYEAR=1995
DGENRE=Country
TTITLE0=Live # 9 - Country Company
TTITLE1=Love reunited - Tequila Sunrise
TTITLE2=Past the point of rescue - Hickory Wind
TTITLE3=Rockin Blues N' 11 - Chicken Tran
TTITLE4=America I love you - Joe Semity
TTITLE5=Guitars and Cadillacs - Fidel Joe and Co
TTITLE6=Other one like me - Daylight
TTITLE7=No end to the travelling - L.A. and Friends
TTITLE8=Thunderbird - Great Dust
TTITLE9=Mama, dont let your babies - Country Bul Mike
TTITLE10=Thank God for the Radio - Homeless
TTITLE11=I dont even know your name - Country Company
TTITLE12=Every once in a while - Tequila sunrise
TTITLE13=Friends - Hickory Wind
TTITLE14=Honky tonk moon - Chicken Train
TTITLE15=She belongs to the rain - Joe Semity
TTITLE16=Louisiana saturday night - Fiedel Joe and Co
TTITLE17=Country made in Germany - Daylight
TTITLE18=Light of heaven - L.A. and Friends
TTITLE19=Littel talk with Jesus - Great Dust
TTITLE20=Muddy Waters - Country Bull Mike
TTITLE21=Hello trouble - Homeless
EXTD=YEAR: 1995
EXTT0=
EXTT1=
EXTT2=
EXTT3=
EXTT4=
EXTT5=
EXTT6=
EXTT7=
EXTT8=
EXTT9=
EXTT10=
EXTT11=
EXTT12=
EXTT13=
EXTT14=
EXTT15=
EXTT16=
EXTT17=
EXTT18=
EXTT19=
EXTT20=
EXTT21=
PLAYORDER=
